#!OML:ASF H:\Terrain\Patient Classification 1\Animal2\Wednesday\Animal2.ASF
:FULLY-SPECIFIED
:DEGREES
396
root 14.7155 17.5401 -5.42224 3.24796 7.51485 -0.940716
lowerback 7.71104 -1.92378 0.245148
upperback -2.3905 -2.26067 4.38577
thorax -6.67527 -1.02075 4.78288
lowerneck 5.20211 9.27556 14.4951
upperneck -19.2464 10.6771 -24.5692
head -4.06297 6.1447 -10.8259
rclavicle -2.40529e-014 -1.74931e-014
rhumerus 20.966 -33.1241 -3.37824
rradius 97.3316
rwrist -29.0918
rhand 18.5385 34.2566
rfingers 7.12502
rthumb 43.1713 10.0715
lclavicle -2.40529e-014 -1.74931e-014
lhumerus 27.8883 31.0794 -10.3922
lradius 63.5105
lwrist 52.2656
lhand -26.2735 32.4264
lfingers 7.12502
lthumb 0.281636 62.406
rfemur -18.7076 -5.58605 -5.11828
rtibia 48.1234
rfoot -0.194207 -5.2285
rtoes 3.8722
lfemur -14.611 2.89166 -6.59095
ltibia 37.8611
lfoot -12.5983 -10.6274
ltoes -19.7204
397
root 14.5796 17.4769 -5.46395 3.26078 7.46417 -0.796852
lowerback 7.67518 -1.87064 0.336843
upperback -2.54168 -2.1877 4.19844
thorax -6.83108 -0.989104 4.52684
lowerneck 5.17609 9.0656 14.3164
upperneck -19.5681 10.3403 -24.3256
head -4.25493 5.97395 -10.7511
rclavicle -3.32964e-014 1.43125e-014
rhumerus 21.3608 -33.6431 -3.67075
rradius 96.3542
rwrist -29.9403
rhand 21.9476 36.2059
rfingers 7.12502
rthumb 46.3449 13.2564
lclavicle -3.32964e-014 1.43125e-014
lhumerus 26.8559 30.1747 -10.9175
lradius 65.68
lwrist 51.7484
lhand -24.8071 30.857
lfingers 7.12502
lthumb 1.69785 60.83
rfemur -17.8855 -5.7002 -5.9599
rtibia 47.9531
rfoot 1.44336 -5.78048
rtoes 2.11632
lfemur -14.8015 3.50172 -6.28925
ltibia 37.9968
lfoot -13.3475 -10.3846
ltoes -22.1819
398
root 14.4469 17.4116 -5.50801 3.31646 7.46662 -0.741409
lowerback 7.57452 -1.84121 0.665242
upperback -2.71049 -2.127 3.95136
thorax -6.9776 -0.976032 4.07276
lowerneck 4.92586 8.8653 14.4317
upperneck -19.5121 10.059 -24.2339
head -4.25152 5.80576 -10.7308
rclavicle -4.64659e-015 1.27222e-014
rhumerus 21.988 -34.0845 -4.15626
rradius 95.1826
rwrist -30.6856
rhand 25.3668 37.9829
rfingers 7.12502
rthumb 49.4977 16.5004
lclavicle -4.64659e-015 1.27222e-014
lhumerus 25.9032 29.2718 -11.5338
lradius 67.829
lwrist 51.1189
lhand -23.2609 29.1819
lfingers 7.12502
lthumb 3.19112 59.1377
rfemur -16.9941 -5.9524 -6.65261
rtibia 47.74
rfoot 3.10277 -6.44989
rtoes 1.62668
lfemur -15.1588 3.98688 -5.88724
ltibia 38.2007
lfoot -13.9414 -10.0388
ltoes -24.6672
399
root 14.3113 17.3507 -5.5473 3.3399 7.41489 -0.461351
lowerback 7.39554 -1.7973 0.812506
upperback -2.7873 -2.08002 3.58609
thorax -6.97637 -0.968246 3.59071
lowerneck 4.40122 8.67222 14.6405
upperneck -19.1992 9.79297 -24.1967
head -4.11007 5.6258 -10.707
rclavicle 2.19657e-014 -4.13472e-014
rhumerus 22.8106 -34.5664 -4.68989
rradius 93.7322
rwrist -31.1949
rhand 28.5891 39.8872
rfingers 7.12502
rthumb 52.4341 20.043
lclavicle 2.19657e-014 -4.13472e-014
lhumerus 24.9981 28.4559 -12.2354
lradius 69.9751
lwrist 50.2419
lhand -22.1406 27.6167
lfingers 7.12502
lthumb 4.27299 57.5536
rfemur -15.9881 -6.06626 -7.55888
rtibia 47.4707
rfoot 4.62897 -7.80618
rtoes 8.16486
lfemur -15.4905 4.43578 -5.70808
ltibia 38.5276
lfoot -14.5298 -9.65471
ltoes -27.6707
400
root 14.1732 17.288 -5.58635 3.30726 7.24924 -0.107668
lowerback 7.23667 -1.73798 0.841242
upperback -2.82909 -2.02464 3.23128
thorax -6.94453 -0.951455 3.18659
lowerneck 4.1192 8.45226 14.7142
upperneck -19.189 9.47528 -24.0372
head -4.13038 5.43683 -10.6599
rclavicle -3.23025e-016 -4.21423e-014
rhumerus 23.7382 -35.0443 -5.12823
rradius 92.1643
rwrist -32.0806
rhand 32.2791 41.4961
rfingers 7.12502
rthumb 55.7434 23.9092
lclavicle -3.23025e-016 -4.21423e-014
lhumerus 24.1675 27.7782 -12.6932
lradius 71.9898
lwrist 49.0153
lhand -20.9343 26.1571
lfingers 7.12502
lthumb 5.43778 56.0674
rfemur -15.0138 -6.02075 -8.4818
rtibia 47.1806
rfoot 5.89709 -9.51044
rtoes 14.0223
lfemur -15.7696 4.92325 -5.58624
ltibia 38.9824
lfoot -15.0763 -9.41365
ltoes -30.6478
401
root 14.0312 17.2157 -5.63258 3.26622 7.04977 0.019569
lowerback 7.2148 -1.66373 1.05051
upperback -2.87138 -1.9186 3.00069
thorax -6.99599 -0.913769 2.81247
lowerneck 3.93057 8.18333 14.5551
upperneck -19.4418 9.04872 -23.8103
head -4.28575 5.21342 -10.5785
rclavicle 5.09261e-014 -3.65764e-014
rhumerus 24.7868 -35.5732 -5.43559
rradius 90.5164
rwrist -33.1357
rhand 35.9473 42.7659
rfingers 7.12502
rthumb 58.9593 27.9376
lclavicle 5.09261e-014 -3.65764e-014
lhumerus 23.3614 27.2163 -12.9584
lradius 73.9106
lwrist 47.8042
lhand -19.4418 24.8952
lfingers 7.12502
lthumb 6.87864 54.7635
rfemur -14.1566 -5.88896 -9.02864
rtibia 46.8667
rfoot 7.14714 -10.7367
rtoes 16.4656
lfemur -16.157 5.37914 -5.1563
ltibia 39.5433
lfoot -15.3582 -9.34252
ltoes -32.5191
402
root 13.8822 17.1428 -5.68211 3.23057 6.71642 0.035449
lowerback 7.23354 -1.5693 1.33106
upperback -2.86317 -1.77696 2.79572
thorax -7.01824 -0.861725 2.42086
lowerneck 3.58746 7.97627 14.312
upperneck -19.6786 8.68595 -23.5909
head -4.3983 5.02039 -10.4694
rclavicle -1.62755e-015 -1.66979e-014
rhumerus 26.0131 -36.096 -5.85513
rradius 88.7016
rwrist -33.818
rhand 38.6857 44.2019
rfingers 7.12502
rthumb 61.297 31.8593
lclavicle -1.62755e-015 -1.66979e-014
lhumerus 22.2462 26.6244 -13.5909
lradius 76.0394
lwrist 46.5998
lhand -18.192 23.6832
lfingers 7.12502
lthumb 8.08503 53.5085
rfemur -13.4752 -5.63456 -9.32887
rtibia 46.5294
rfoot 8.40582 -11.3656
rtoes 16.8704
lfemur -16.5845 5.81004 -4.54317
ltibia 40.1999
lfoot -15.6511 -9.26426
ltoes -34.2182
403
root 13.7293 17.0729 -5.73244 3.05892 6.19662 0.128217
lowerback 7.42209 -1.46076 1.53695
upperback -2.88941 -1.62211 2.52475
thorax -7.17277 -0.800998 2.00714
lowerneck 3.54233 7.79097 14.0853
upperneck -20.0037 8.39398 -23.2557
head -4.58307 4.86837 -10.344
rclavicle -7.33018e-015 7.95139e-015
rhumerus 27.4746 -36.3253 -6.46136
rradius 86.7373
rwrist -34.3112
rhand 41.3493 44.8617
rfingers 7.12502
rthumb 63.5038 35.3754
lclavicle -7.33018e-015 7.95139e-015
lhumerus 21.0907 25.9382 -14.3655
lradius 78.2128
lwrist 45.526
lhand -16.987 22.2459
lfingers 7.12502
lthumb 9.24786 52.0231
rfemur -12.826 -5.04591 -9.64393
rtibia 46.1735
rfoot 9.26177 -11.8168
rtoes 18.0983
lfemur -16.8264 6.19276 -3.96064
ltibia 40.9352
lfoot -16.004 -9.17151
ltoes -36.3177
404
root 13.5752 16.9966 -5.78382 2.7247 5.57327 0.149195
lowerback 7.78121 -1.25391 1.8618
upperback -2.90263 -1.31954 2.22053
thorax -7.4153 -0.674858 1.47467
lowerneck 3.5857 7.50559 14.0694
upperneck -20.3404 7.98367 -22.9964
head -4.79315 4.65357 -10.2923
rclavicle 1.57164e-014 -5.56597e-015
rhumerus 28.6955 -36.5158 -6.80166
rradius 84.691
rwrist -34.6659
rhand 43.8226 44.766
rfingers 7.12502
rthumb 65.478 38.4055
lclavicle 1.57164e-014 -5.56597e-015
lhumerus 20.4852 25.5381 -14.5404
lradius 80.1309
lwrist 44.4704
lhand -15.1329 20.5888
lfingers 7.12502
lthumb 11.0365 50.2786
rfemur -12.141 -4.18886 -9.80631
rtibia 45.7875
rfoot 10.0815 -11.7848
rtoes 17.7244
lfemur -16.892 6.52495 -3.22245
ltibia 41.75
lfoot -16.255 -9.18419
ltoes -38.2454
